<?xml version="1.0" encoding="UTF-8" standalone="no"?>
<svg width="112px" height="127px" viewBox="0 0 112 127" version="1.1" xmlns="http://www.w3.org/2000/svg" xmlns:xlink="http://www.w3.org/1999/xlink" xmlns:sketch="http://www.bohemiancoding.com/sketch/ns">
    <!-- Generator: Sketch 3.0.1 (7597) - http://www.bohemiancoding.com/sketch -->
    <title>Logo</title>
    <description>Created with Sketch.</description>
    <defs></defs>
    <g id="Page-1" stroke="none" stroke-width="1" fill="none" fill-rule="evenodd" sketch:type="MSPage">
        <g id="Logo" sketch:type="MSLayerGroup" transform="translate(-3.000000, -1.000000)" fill="#FFFFFF">
            <g id="Paw" transform="translate(30.052416, 53.805310)" sketch:type="MSShapeGroup">
                <path d="M29.8068062,56.1402236 C41.4963086,55.802614 37.1824322,59.4440614 44.2427343,59.8579721 C47.6334992,60.064514 49.3120962,52.7667111 49.3120962,52.7667111 C49.8156749,48.7047265 40.3819634,39.6857441 26.4160442,40.236522 C19.7352239,40.4430639 10.8386684,44.6427428 10.8386684,48.2572204 C10.2143017,56.5073524 14.2384827,59.8596165 16.0087452,60.0300897 C17.7790078,60.2005629 22.5552658,56.2090702 29.8068062,56.1402236 Z" id="path2890"></path>
                <path d="M6.183435,42.3373587 C-4.62043139,33.0061 1.21627015,21.0675104 5.12276749,21.5354642 C8.21943216,21.5785773 12.0685457,31.6950473 11.2216359,39.44438 C11.2316499,41.1280107 7.09976598,43.0119763 6.183435,42.3373587 L6.183435,42.3373587 Z" id="path3664-7"></path>
                <path d="M15.8918935,23.6808396 C18.0126395,24.8866761 22.7329991,24.2837588 23.4171039,23.3458858 C26.9744815,18.4555476 25.1273851,3.18161586 24.2380431,2.84666107 C24.2380431,2.84666107 22.6645867,-0.368903165 20.1333759,0.836933306 C10.2306839,6.8109134 11.2121523,20.2186786 15.8918935,23.6808396 L15.8918935,23.6808396 Z" id="path3666-0"></path>
                <path d="M30.1665198,19.9723284 C31.7876106,22.3047162 41.8535754,22.8993358 43.1803666,20.7903078 C46.1472534,13.0876695 42.4650273,0.095366217 36.5048704,1.15164799e-06 C29.9119582,-0.00513303146 28.4021849,17.1579009 30.1665198,19.9723284 L30.1665198,19.9723284 Z" id="path3668-7"></path>
                <path d="M43.1101402,32.0961433 C43.2317737,35.6739757 46.7336581,38.943999 52.0204546,37.6634948 C55.2366705,37.8327166 60.8170817,24.7878364 51.8148327,18.8994572 C49.2504418,17.4659348 42.727885,23.5665074 43.1101402,32.0961433 L43.1101402,32.0961433 Z" id="path3670"></path>
            </g>
            <g id="House" sketch:type="MSShapeGroup">
                <path d="M18.2645963,122.16959 C13.4407033,123.681429 18.2645963,124.559181 18.2645963,124.559181 C18.2645963,124.559181 102.681477,126.660904 103.675878,126.036619 C104.670279,125.412334 104.395072,124.823147 106.286084,123.759126 C108.177096,122.695105 112.215967,120.054783 104.193525,118.425591 C96.171083,116.796398 23.0884894,120.657751 18.2645963,122.16959 Z" id="House-Line"></path>
                <path d="M55.189885,81.6308581 C50.365992,83.1426968 55.189885,84.020449 55.189885,84.020449 C55.189885,84.020449 135.637578,86.1221724 136.63198,85.4978872 C137.626381,84.873602 137.351173,84.284415 139.242185,83.220394 C141.133197,82.156373 145.172069,79.5160512 137.149627,77.8868585 C129.127185,76.2576658 60.0137781,80.1190194 55.189885,81.6308581 Z" id="House-Line-2" transform="translate(97.313634, 81.514365) rotate(-90.000000) translate(-97.313634, -81.514365) "></path>
                <path d="M-20.9840219,83.846591 C-25.8079149,85.3584296 -20.9840219,86.2361819 -20.9840219,86.2361819 C-20.9840219,86.2361819 59.4636715,88.3379053 60.4580727,87.7136201 C61.4524739,87.0893348 61.1772666,86.5001479 63.0682785,85.4361269 C64.9592905,84.3721058 68.9981619,81.7317841 60.9757198,80.1025914 C52.9532778,78.4733987 -16.1601288,82.3347523 -20.9840219,83.846591 Z" id="House-Line-3" transform="translate(21.139727, 83.730098) rotate(-90.000000) translate(-21.139727, -83.730098) "></path>
                <path d="M17.2545149,44.9306972 C10.4149643,46.4523808 17.2545149,47.8866598 17.2545149,47.8866598 C17.2545149,47.8866598 100.537342,49.9883832 101.531743,49.364098 C102.526144,48.7398127 102.250937,48.1506258 104.141949,47.0866048 C106.032961,46.0225838 110.071832,43.382262 102.04939,41.7530693 C94.0269481,40.1238766 24.0940654,43.4090136 17.2545149,44.9306972 Z" id="House-Line-4" transform="translate(60.512317, 45.380576) rotate(-180.000000) translate(-60.512317, -45.380576) "></path>
                <path d="M-8.29464042,37.0846751 C-13.1185335,38.5965138 -8.29464042,39.4742661 -8.29464042,39.4742661 C-8.29464042,39.4742661 73.7568467,41.5759895 74.7512479,40.9517042 C75.7456491,40.327419 75.4704418,39.7382321 77.3614537,38.674211 C79.2524657,37.61019 83.291337,34.9698682 75.268895,33.3406756 C67.246453,31.7114829 -3.47074735,35.5728365 -8.29464042,37.0846751 Z" id="House-Line-5" transform="translate(34.865876, 36.968182) rotate(-225.000000) translate(-34.865876, -36.968182) "></path>
                <path d="M39.0006042,35.1648348 C34.1767111,36.6766735 39.0006042,37.5544257 39.0006042,37.5544257 C39.0006042,37.5544257 120.224997,39.6153646 122.046492,39.0318639 C123.867988,38.4483632 123.166635,38.218877 125.057647,37.1548559 C126.948659,36.0908349 130.586582,33.0500279 122.56414,31.4208352 C114.541698,29.7916425 43.8244973,33.6529961 39.0006042,35.1648348 Z" id="House-Line-6" transform="translate(81.974893, 35.048342) rotate(-135.000000) translate(-81.974893, -35.048342) "></path>
            </g>
        </g>
    </g>
</svg>